<svg version="1.1" id="Layer_1" xmlns="http://www.w3.org/2000/svg" xmlns:xlink="http://www.w3.org/1999/xlink" x="0px" y="0px"
	 width="100%" viewBox="0 0 191 191" enable-background="new 0 0 191 191" xml:space="preserve">
<path fill="#000000" opacity="1.000000" stroke="none" 
	d="
M101.000000,192.000000 
	C67.333336,192.000000 34.166672,192.000000 1.000005,192.000000 
	C1.000003,128.333344 1.000003,64.666679 1.000001,1.000013 
	C64.666656,1.000009 128.333313,1.000009 191.999969,1.000004 
	C191.999985,64.666649 191.999985,128.333298 192.000000,191.999969 
	C161.833328,192.000000 131.666672,192.000000 101.000000,192.000000 
M160.730118,110.674400 
	C161.030304,108.893921 161.588455,107.113960 161.592056,105.332886 
	C161.647537,77.901031 161.653748,50.468967 161.561813,23.037317 
	C161.557343,21.703531 160.544540,20.373125 159.066772,18.960213 
	C117.044060,18.988365 75.021347,19.016518 32.202332,19.132282 
	C31.903011,20.191305 31.344139,21.249870 31.342266,22.309418 
	C31.293144,50.131084 31.273001,77.952957 31.372869,105.774353 
	C31.378750,107.412560 32.431358,109.047020 33.560787,111.084900 
	C41.933201,119.446991 50.316631,127.798096 58.675362,136.173843 
	C70.081345,147.603073 81.538345,158.982956 92.813248,170.540314 
	C95.536797,173.332108 97.310745,173.393372 100.087135,170.557877 
	C112.664040,157.713226 125.412903,145.036224 138.156403,132.355698 
	C145.381790,125.166046 152.716385,118.086113 160.730118,110.674400 
z"/>
<path fill="#AC1B2E" opacity="1.000000" stroke="none" 
	d="
M32.998631,19.044668 
	C75.021347,19.016518 117.044060,18.988365 159.530975,19.466513 
	C159.997375,50.300797 159.999588,80.628777 160.001785,110.956764 
	C152.716385,118.086113 145.381790,125.166046 138.156403,132.355698 
	C125.412903,145.036224 112.664040,157.713226 100.087135,170.557877 
	C97.310745,173.393372 95.536797,173.332108 92.813248,170.540314 
	C81.538345,158.982956 70.081345,147.603073 58.675362,136.173843 
	C50.316631,127.798096 41.933201,119.446991 33.280457,110.438278 
	C32.999630,79.542656 32.999130,49.293663 32.998631,19.044668 
M139.722870,112.175957 
	C142.563492,113.039215 145.467300,114.318222 148.132736,110.037498 
	C147.404160,109.609642 146.675583,109.181786 145.637787,108.415588 
	C145.080490,107.605995 144.523209,106.796402 144.243408,104.958252 
	C144.375763,104.124382 144.508133,103.290520 144.707520,102.034401 
	C132.442932,104.489944 120.727974,106.835449 108.398125,109.041252 
	C107.973953,108.711128 107.549774,108.380997 107.842461,107.863655 
	C109.152756,107.069130 110.369171,105.891090 111.788895,105.543541 
	C119.807701,103.580536 127.884155,101.854065 135.917068,99.946365 
	C137.171066,99.648560 138.957336,99.131912 139.377045,98.207657 
	C141.182816,94.231209 142.570663,90.064980 144.378372,85.255814 
	C139.408676,85.882538 135.199326,86.413368 130.650436,86.487946 
	C130.326447,86.292084 130.002441,86.096222 129.421066,85.005959 
	C129.421066,70.805260 129.421066,56.604557 129.421066,42.044773 
	C123.366692,42.044773 117.776184,42.044773 111.580811,42.618603 
	C111.386879,43.744057 111.024948,44.869404 111.024223,45.994976 
	C111.013405,62.756390 111.050362,79.517838 110.776108,96.873749 
	C108.999847,98.185287 107.223587,99.496834 104.862228,101.240402 
	C104.862228,86.054420 104.862228,71.654160 104.862228,57.127426 
	C99.129478,57.127426 93.745293,57.127426 88.005913,57.127426 
	C88.005913,71.777138 88.005913,86.164146 88.005913,101.408737 
	C85.567970,99.359428 83.744682,97.826797 81.970329,95.320168 
	C81.980774,91.219131 82.133598,87.112099 81.961189,83.018761 
	C81.792351,79.010193 81.292282,75.015587 80.024391,70.827133 
	C74.601372,70.827133 69.178352,70.827133 63.634544,70.827133 
	C63.634544,75.308029 63.506474,79.140114 63.672047,82.959465 
	C63.825027,86.488281 62.322605,87.218826 59.102562,86.569946 
	C55.895618,85.923706 52.587879,85.777657 48.678623,85.339996 
	C50.734032,90.880424 52.555092,95.789146 54.194153,100.207283 
	C60.789642,101.116364 67.166336,101.844749 73.476189,102.953575 
	C75.458145,103.301865 77.260452,104.672501 79.077347,106.353844 
	C79.051003,106.874191 79.024658,107.394531 78.219193,107.989265 
	C70.368744,106.663689 62.516510,105.348488 54.669323,104.003853 
	C53.085598,103.732475 51.520973,103.349625 49.885593,102.284393 
	C47.902748,98.847595 47.831646,94.202255 43.308666,92.327477 
	C44.909550,95.919922 46.510429,99.512375 48.174709,103.861137 
	C48.454842,104.559128 48.734974,105.257126 48.819077,106.658920 
	C48.013653,107.133102 47.208225,107.607292 45.887100,107.239845 
	C45.302757,107.168655 44.718418,107.097466 44.134071,107.026276 
	C45.284176,108.622917 46.191216,111.269447 47.633652,111.603401 
	C50.902206,112.360107 54.434559,111.977371 58.033279,112.326805 
	C58.260948,112.287437 58.488613,112.248077 59.282597,112.596893 
	C60.864063,112.727638 62.445534,112.858383 64.408859,113.358086 
	C64.910965,113.490608 65.413063,113.623138 66.656960,113.914490 
	C67.413528,113.952232 68.170090,113.989967 69.127556,114.344788 
	C69.346992,114.354820 69.566422,114.364853 70.446625,114.825981 
	C78.381752,118.551666 86.316879,122.277351 94.144035,126.499718 
	C94.422241,126.539940 94.700439,126.580162 95.705582,126.762474 
	C96.321571,126.669701 97.101929,126.787445 97.529633,126.453514 
	C109.723961,116.932892 124.187149,113.888901 139.722870,112.175957 
M122.094009,37.418201 
	C123.218979,36.017395 124.343956,34.616585 125.389786,33.314320 
	C123.517685,31.980219 122.156448,31.010172 120.887329,30.105768 
	C119.557724,31.091919 118.245842,32.064922 116.901230,33.062206 
	C117.306946,33.774174 117.851578,34.427738 118.059364,35.174973 
	C118.292236,36.012394 118.220284,36.934589 118.282738,37.845783 
	C119.517387,37.536156 120.446991,37.303024 122.094009,37.418201 
M93.590729,49.033283 
	C95.706665,51.905945 97.741348,51.050518 100.422554,46.328178 
	C99.035210,45.269577 97.692444,44.244995 96.650330,43.449818 
	C95.366302,44.301060 94.014648,44.929691 93.075081,45.941124 
	C92.651886,46.396671 93.050797,47.615917 93.590729,49.033283 
M74.014954,60.616924 
	C73.472435,59.856617 72.929916,59.096313 72.472321,58.455017 
	C71.023926,59.585987 69.574310,60.717907 68.377892,61.652122 
	C68.905891,63.111641 69.410896,64.507622 69.931770,65.947456 
	C71.477890,66.022484 73.164223,66.104324 74.512192,66.169739 
	C75.087036,64.768349 75.713516,63.498646 76.067589,62.157047 
	C76.137024,61.893940 75.152580,61.352695 74.014954,60.616924 
M43.953651,102.623436 
	C43.379051,102.269539 42.804447,101.915649 42.229843,101.561760 
	C42.243858,102.329315 42.257874,103.096863 42.271889,103.864418 
	C42.901817,103.820450 43.531742,103.776482 43.953651,102.623436 
M149.609848,101.607597 
	C149.404938,102.597641 149.200043,103.587692 148.995148,104.577744 
	C149.462250,104.646507 149.929337,104.715279 150.396423,104.784042 
	C150.495895,103.619736 150.595367,102.455421 149.609848,101.607597 
M153.681381,96.889793 
	C153.221298,96.639671 152.761200,96.389549 152.301117,96.139435 
	C152.178970,96.533287 152.056808,96.927139 151.934647,97.320992 
	C152.323196,97.429985 152.711731,97.538986 153.681381,96.889793 
M39.812359,96.033531 
	C39.832924,96.553398 39.853489,97.073257 39.874054,97.593124 
	C40.269787,97.508133 40.665520,97.423141 41.061253,97.338158 
	C40.956657,96.945000 40.852058,96.551834 39.812359,96.033531 
M146.475067,106.548767 
	C146.475067,106.548767 146.446075,106.485275 146.475067,106.548767 
M148.499985,91.999992 
	C148.366653,92.199997 148.233322,92.399994 148.100006,92.599998 
	C148.400009,92.566666 148.699997,92.533333 148.499985,91.999992 
z"/>
<path fill="#B11B2F" opacity="1.000000" stroke="none" 
	d="
M32.600479,19.088474 
	C32.999130,49.293663 32.999630,79.542656 32.998497,110.237434 
	C32.431358,109.047020 31.378750,107.412560 31.372869,105.774353 
	C31.273001,77.952957 31.293144,50.131084 31.342266,22.309418 
	C31.344139,21.249870 31.903011,20.191305 32.600479,19.088474 
z"/>
<path fill="#B11B2F" opacity="1.000000" stroke="none" 
	d="
M160.365952,110.815582 
	C159.999588,80.628777 159.997375,50.300797 159.998230,19.506977 
	C160.544540,20.373125 161.557343,21.703531 161.561813,23.037317 
	C161.653748,50.468967 161.647537,77.901031 161.592056,105.332886 
	C161.588455,107.113960 161.030304,108.893921 160.365952,110.815582 
z"/>
<path fill="#FEFCFC" opacity="1.000000" stroke="none" 
	d="
M79.144981,105.575203 
	C77.260452,104.672501 75.458145,103.301865 73.476189,102.953575 
	C67.166336,101.844749 60.789642,101.116364 54.194153,100.207283 
	C52.555092,95.789146 50.734032,90.880424 48.678623,85.339996 
	C52.587879,85.777657 55.895618,85.923706 59.102562,86.569946 
	C62.322605,87.218826 63.825027,86.488281 63.672047,82.959465 
	C63.506474,79.140114 63.634544,75.308029 63.634544,70.827133 
	C69.178352,70.827133 74.601372,70.827133 80.475128,71.388634 
	C80.918533,77.069138 80.792496,82.191772 80.948997,87.305763 
	C81.040894,90.309006 81.582222,93.298485 81.921402,96.294159 
	C83.744682,97.826797 85.567970,99.359428 88.005913,101.408737 
	C88.005913,86.164146 88.005913,71.777138 88.005913,57.127426 
	C93.745293,57.127426 99.129478,57.127426 104.862228,57.127426 
	C104.862228,71.654160 104.862228,86.054420 104.862228,101.240402 
	C107.223587,99.496834 108.999847,98.185287 111.299988,96.323639 
	C111.944473,77.863945 112.065079,59.954357 112.185684,42.044773 
	C117.776184,42.044773 123.366692,42.044773 129.421066,42.044773 
	C129.421066,56.604557 129.421066,70.805260 129.528381,85.824608 
	C130.087112,86.743576 130.538559,86.843895 130.989990,86.944206 
	C135.199326,86.413368 139.408676,85.882538 144.378372,85.255814 
	C142.570663,90.064980 141.182816,94.231209 139.377045,98.207657 
	C138.957336,99.131912 137.171066,99.648560 135.917068,99.946365 
	C127.884155,101.854065 119.807701,103.580536 111.788895,105.543541 
	C110.369171,105.891090 109.152756,107.069130 107.155334,107.946182 
	C105.642181,108.519676 104.816162,109.010658 103.634926,109.623566 
	C100.930717,111.037003 98.581726,112.328506 96.409599,113.522774 
	C94.279594,112.243690 92.198700,110.994110 89.927956,109.460815 
	C86.871140,108.101295 84.004173,107.025490 81.014397,105.679367 
	C80.455162,105.558556 80.018738,105.708046 79.504700,105.737808 
	C79.427094,105.618088 79.144981,105.575203 79.144981,105.575203 
z"/>
<path fill="#FEFCFC" opacity="1.000000" stroke="none" 
	d="
M49.947540,103.018173 
	C51.520973,103.349625 53.085598,103.732475 54.669323,104.003853 
	C62.516510,105.348488 70.368744,106.663689 78.928925,108.102127 
	C81.408997,108.816338 83.179344,109.417694 85.129875,110.263611 
	C85.876617,110.685806 86.443184,110.863449 87.070160,111.143082 
	C87.130577,111.245079 87.359573,111.183678 87.598755,111.462013 
	C90.687469,113.387428 93.536987,115.034508 97.060974,117.071434 
	C99.591682,114.882515 102.438850,112.419868 105.577217,109.982956 
	C106.916618,109.732780 107.964821,109.456871 109.013023,109.180962 
	C120.727974,106.835449 132.442932,104.489944 144.707520,102.034401 
	C144.508133,103.290520 144.375763,104.124382 143.692474,105.573456 
	C138.304642,106.541664 133.467712,106.894676 128.249084,107.220917 
	C127.245636,108.130135 126.623886,109.066139 125.638893,109.988174 
	C124.549431,109.942337 123.823227,109.910469 123.025467,109.635696 
	C122.500587,109.229218 122.047241,109.065636 121.593903,108.902054 
	C122.022163,109.300201 122.450432,109.698357 122.965302,110.412949 
	C124.033943,110.485558 125.015968,110.241707 126.319778,110.004791 
	C127.070610,110.016411 127.499664,110.021103 128.382568,110.139526 
	C134.539932,109.753487 140.243469,109.253708 145.947006,108.753922 
	C146.675583,109.181786 147.404160,109.609642 147.487198,110.492607 
	C144.229340,111.244797 141.617020,111.541870 139.004700,111.838951 
	C124.187149,113.888901 109.723961,116.932892 97.529633,126.453514 
	C97.101929,126.787445 96.321571,126.669701 95.261810,126.546768 
	C94.662949,126.163795 94.474266,126.054451 94.252007,126.003036 
	C86.316879,122.277351 78.381752,118.551666 70.002556,114.483528 
	C69.362473,114.022026 69.151863,113.984238 68.926659,114.027702 
	C68.170090,113.989967 67.413528,113.952232 66.111755,113.629257 
	C65.053368,113.225731 64.540184,113.107437 64.027000,112.989136 
	C62.445534,112.858383 60.864063,112.727638 58.870552,112.321846 
	C58.257515,111.976891 58.057896,111.980606 57.859646,112.057953 
	C54.434559,111.977371 50.902206,112.360107 47.633652,111.603401 
	C46.191216,111.269447 45.284176,108.622917 44.134071,107.026276 
	C44.718418,107.097466 45.302757,107.168655 46.418739,108.012207 
	C52.846855,109.242218 58.743332,109.699875 64.934906,110.134933 
	C65.820419,110.074425 66.410843,110.036499 67.049149,110.263115 
	C67.393364,110.831100 67.689705,111.134552 67.986046,111.437996 
	C68.147903,111.240227 68.309753,111.042458 68.471603,110.844688 
	C67.980583,110.563553 67.489571,110.282417 66.977875,109.625229 
	C65.892128,108.533356 64.827065,107.817520 63.402641,107.134018 
	C58.367222,106.762604 53.691166,106.358864 49.015106,105.955124 
	C48.734974,105.257126 48.454842,104.559128 48.601986,103.459595 
	C49.335358,103.044754 49.641449,103.031464 49.947540,103.018173 
M75.150490,110.958237 
	C74.623322,111.387199 74.096153,111.816162 73.568993,112.245125 
	C74.044899,112.491669 74.520813,112.738213 75.686050,113.456551 
	C76.427773,113.199577 77.169495,112.942604 78.484825,113.132133 
	C81.808334,114.840607 85.131851,116.549080 88.927071,118.802223 
	C91.523033,120.362679 94.118996,121.923134 96.609207,123.420021 
	C99.403496,121.595871 101.976227,119.916359 105.236450,118.132904 
	C107.313835,117.203186 109.465416,116.404076 111.435295,115.285080 
	C112.333214,114.775017 112.872284,113.633202 113.574112,112.777931 
	C112.430115,112.757912 111.133736,112.379051 110.171715,112.787560 
	C107.649559,113.858559 105.273254,115.273026 102.149796,116.819313 
	C100.232887,118.068962 98.315979,119.318611 96.585472,120.446739 
	C94.381752,119.126045 92.262177,117.855774 89.711975,116.070198 
	C85.806221,114.747955 81.900475,113.425713 77.966568,111.577606 
	C77.297035,111.390617 76.627502,111.203629 75.150490,110.958237 
M116.643341,110.229340 
	C116.531876,111.165306 116.420418,112.101273 116.308952,113.037231 
	C116.842400,112.996071 117.375839,112.954903 117.909286,112.913742 
	C117.679771,112.085556 117.450256,111.257362 116.643341,110.229340 
M70.807411,108.499382 
	C70.868355,108.824509 70.929306,109.149635 70.990250,109.474762 
	C71.064735,109.152657 71.139221,108.830544 70.807411,108.499382 
z"/>
<path fill="#A81524" opacity="1.000000" stroke="none" 
	d="
M128.630798,107.247688 
	C133.467712,106.894676 138.304642,106.541664 143.553741,106.087730 
	C144.523209,106.796402 145.080490,107.605995 145.792389,108.584755 
	C140.243469,109.253708 134.539932,109.753487 128.362946,109.770035 
	C128.136597,108.607094 128.383698,107.927391 128.630798,107.247688 
z"/>
<path fill="#9F010C" opacity="1.000000" stroke="none" 
	d="
M111.883247,42.331688 
	C112.065079,59.954357 111.944473,77.863945 111.449951,96.026398 
	C111.050362,79.517838 111.013405,62.756390 111.024223,45.994976 
	C111.024948,44.869404 111.386879,43.744057 111.883247,42.331688 
z"/>
<path fill="#A81524" opacity="1.000000" stroke="none" 
	d="
M64.639809,110.157524 
	C58.743332,109.699875 52.846855,109.242218 46.676590,108.433022 
	C47.208225,107.607292 48.013653,107.133102 48.917091,106.307022 
	C53.691166,106.358864 58.367222,106.762604 63.585434,107.491135 
	C64.298325,108.596451 64.469070,109.376991 64.639809,110.157524 
z"/>
<path fill="#F8EBEC" opacity="1.000000" stroke="none" 
	d="
M121.735306,37.244049 
	C120.446991,37.303024 119.517387,37.536156 118.282738,37.845783 
	C118.220284,36.934589 118.292236,36.012394 118.059364,35.174973 
	C117.851578,34.427738 117.306946,33.774174 116.901230,33.062206 
	C118.245842,32.064922 119.557724,31.091919 120.887329,30.105768 
	C122.156448,31.010172 123.517685,31.980219 125.389786,33.314320 
	C124.343956,34.616585 123.218979,36.017395 121.735306,37.244049 
z"/>
<path fill="#F9F0F1" opacity="1.000000" stroke="none" 
	d="
M93.333710,48.760967 
	C93.050797,47.615917 92.651886,46.396671 93.075081,45.941124 
	C94.014648,44.929691 95.366302,44.301060 96.650330,43.449818 
	C97.692444,44.244995 99.035210,45.269577 100.422554,46.328178 
	C97.741348,51.050518 95.706665,51.905945 93.333710,48.760967 
z"/>
<path fill="#FBF3F4" opacity="1.000000" stroke="none" 
	d="
M74.334572,60.778328 
	C75.152580,61.352695 76.137024,61.893940 76.067589,62.157047 
	C75.713516,63.498646 75.087036,64.768349 74.512192,66.169739 
	C73.164223,66.104324 71.477890,66.022484 69.931770,65.947456 
	C69.410896,64.507622 68.905891,63.111641 68.377892,61.652122 
	C69.574310,60.717907 71.023926,59.585987 72.472321,58.455017 
	C72.929916,59.096313 73.472435,59.856617 74.334572,60.778328 
z"/>
<path fill="#AC202F" opacity="1.000000" stroke="none" 
	d="
M84.949692,110.019058 
	C83.179344,109.417694 81.408997,108.816338 79.318481,108.064926 
	C79.024658,107.394531 79.051003,106.874191 79.111160,105.964523 
	C79.144981,105.575203 79.427094,105.618088 79.892914,105.772484 
	C80.618217,105.934479 80.877708,105.942078 81.137207,105.949677 
	C84.004173,107.025490 86.871140,108.101295 89.655334,109.752090 
	C88.834900,110.612602 88.097237,110.898140 87.359573,111.183678 
	C87.359573,111.183678 87.130577,111.245079 86.874565,110.917244 
	C86.062263,110.399292 85.505981,110.209175 84.949692,110.019058 
z"/>
<path fill="#F9EFF0" opacity="1.000000" stroke="none" 
	d="
M49.916565,102.651283 
	C49.641449,103.031464 49.335358,103.044754 48.570290,103.081436 
	C46.510429,99.512375 44.909550,95.919922 43.308666,92.327477 
	C47.831646,94.202255 47.902748,98.847595 49.916565,102.651283 
z"/>
<path fill="#9E010B" opacity="1.000000" stroke="none" 
	d="
M81.945862,95.807159 
	C81.582222,93.298485 81.040894,90.309006 80.948997,87.305763 
	C80.792496,82.191772 80.918533,77.069138 80.931725,71.482491 
	C81.292282,75.015587 81.792351,79.010193 81.961189,83.018761 
	C82.133598,87.112099 81.980774,91.219131 81.945862,95.807159 
z"/>
<path fill="#F8ECEE" opacity="1.000000" stroke="none" 
	d="
M139.363785,112.007454 
	C141.617020,111.541870 144.229340,111.244797 147.254700,110.958176 
	C145.467300,114.318222 142.563492,113.039215 139.363785,112.007454 
z"/>
<path fill="#F9EFF0" opacity="1.000000" stroke="none" 
	d="
M108.705574,109.111115 
	C107.964821,109.456871 106.916618,109.732780 105.260445,109.848587 
	C104.431702,109.626213 104.210922,109.563927 103.990143,109.501640 
	C104.816162,109.010658 105.642181,108.519676 106.796906,108.039787 
	C107.549774,108.380997 107.973953,108.711128 108.705574,109.111115 
z"/>
<path fill="#F8ECEE" opacity="1.000000" stroke="none" 
	d="
M64.217926,113.173615 
	C64.540184,113.107437 65.053368,113.225731 65.740860,113.549843 
	C65.413063,113.623138 64.910965,113.490608 64.217926,113.173615 
z"/>
<path fill="#FEFCFC" opacity="1.000000" stroke="none" 
	d="
M44.057663,103.177979 
	C43.531742,103.776482 42.901817,103.820450 42.271889,103.864418 
	C42.257874,103.096863 42.243858,102.329315 42.229843,101.561760 
	C42.804447,101.915649 43.379051,102.269539 44.057663,103.177979 
z"/>
<path fill="#FEFCFC" opacity="1.000000" stroke="none" 
	d="
M150.152344,101.449356 
	C150.595367,102.455421 150.495895,103.619736 150.396423,104.784042 
	C149.929337,104.715279 149.462250,104.646507 148.995148,104.577744 
	C149.200043,103.587692 149.404938,102.597641 150.152344,101.449356 
z"/>
<path fill="#F8ECEE" opacity="1.000000" stroke="none" 
	d="
M57.946465,112.192383 
	C58.057896,111.980606 58.257515,111.976891 58.587395,112.127762 
	C58.488613,112.248077 58.260948,112.287437 57.946465,112.192383 
z"/>
<path fill="#FEFCFC" opacity="1.000000" stroke="none" 
	d="
M153.390839,97.268890 
	C152.711731,97.538986 152.323196,97.429985 151.934647,97.320992 
	C152.056808,96.927139 152.178970,96.533287 152.301117,96.139435 
	C152.761200,96.389549 153.221298,96.639671 153.390839,97.268890 
z"/>
<path fill="#FEFCFC" opacity="1.000000" stroke="none" 
	d="
M40.279911,96.096100 
	C40.852058,96.551834 40.956657,96.945000 41.061253,97.338158 
	C40.665520,97.423141 40.269787,97.508133 39.874054,97.593124 
	C39.853489,97.073257 39.832924,96.553398 40.279911,96.096100 
z"/>
<path fill="#F8ECEE" opacity="1.000000" stroke="none" 
	d="
M69.027107,114.186249 
	C69.151863,113.984238 69.362473,114.022026 69.672173,114.257980 
	C69.566422,114.364853 69.346992,114.354820 69.027107,114.186249 
z"/>
<path fill="#A81524" opacity="1.000000" stroke="none" 
	d="
M146.460571,106.517021 
	C146.446075,106.485275 146.475067,106.548767 146.460571,106.517021 
z"/>
<path fill="#FEFCFC" opacity="1.000000" stroke="none" 
	d="
M148.750000,92.250000 
	C148.699997,92.533333 148.400009,92.566666 148.100006,92.599991 
	C148.233322,92.399994 148.366653,92.199997 148.750000,92.250000 
z"/>
<path fill="#A50719" opacity="1.000000" stroke="none" 
	d="
M130.820221,86.716080 
	C130.538559,86.843895 130.087112,86.743576 129.657074,86.271805 
	C130.002441,86.096222 130.326447,86.292084 130.820221,86.716080 
z"/>
<path fill="#F8ECEE" opacity="1.000000" stroke="none" 
	d="
M94.198021,126.251373 
	C94.474266,126.054451 94.662949,126.163795 94.898346,126.475723 
	C94.700439,126.580162 94.422241,126.539940 94.198021,126.251373 
z"/>
<path fill="#AB1E2A" opacity="1.000000" stroke="none" 
	d="
M103.634926,109.623566 
	C104.210922,109.563927 104.431702,109.626213 104.969254,109.822861 
	C102.438850,112.419868 99.591682,114.882515 97.060974,117.071434 
	C93.536987,115.034508 90.687469,113.387428 87.598755,111.462013 
	C88.097237,110.898140 88.834900,110.612602 89.845184,110.035797 
	C92.198700,110.994110 94.279594,112.243690 96.409599,113.522774 
	C98.581726,112.328506 100.930717,111.037003 103.634926,109.623566 
z"/>
<path fill="#AC1B2E" opacity="1.000000" stroke="none" 
	d="
M81.014397,105.679367 
	C80.877708,105.942078 80.618217,105.934479 79.970520,105.892212 
	C80.018738,105.708046 80.455162,105.558556 81.014397,105.679367 
z"/>
<path fill="#A91926" opacity="1.000000" stroke="none" 
	d="
M90.142601,116.585510 
	C92.262177,117.855774 94.381752,119.126045 96.585472,120.446739 
	C98.315979,119.318611 100.232887,118.068962 102.726547,117.016479 
	C103.718529,117.554703 104.133743,117.895775 104.548965,118.236847 
	C101.976227,119.916359 99.403496,121.595871 96.609207,123.420021 
	C94.118996,121.923134 91.523033,120.362679 89.021988,118.304230 
	C89.458801,117.399323 89.800697,116.992416 90.142601,116.585510 
z"/>
<path fill="#AE2633" opacity="1.000000" stroke="none" 
	d="
M89.927292,116.327850 
	C89.800697,116.992416 89.458801,117.399323 88.786133,118.031891 
	C85.131851,116.549080 81.808334,114.840607 78.243881,112.846756 
	C78.002937,112.561378 77.994720,112.103470 77.994720,112.103470 
	C81.900475,113.425713 85.806221,114.747955 89.927292,116.327850 
z"/>
<path fill="#B02A37" opacity="1.000000" stroke="none" 
	d="
M104.892708,118.184875 
	C104.133743,117.895775 103.718529,117.554703 103.071068,116.882126 
	C105.273254,115.273026 107.649559,113.858559 110.171715,112.787560 
	C111.133736,112.379051 112.430115,112.757912 113.574112,112.777931 
	C112.872284,113.633202 112.333214,114.775017 111.435295,115.285080 
	C109.465416,116.404076 107.313835,117.203186 104.892708,118.184875 
z"/>
<path fill="#F8ECEE" opacity="1.000000" stroke="none" 
	d="
M116.932037,110.329254 
	C117.450256,111.257362 117.679771,112.085556 117.909286,112.913742 
	C117.375839,112.954903 116.842400,112.996071 116.308952,113.037231 
	C116.420418,112.101273 116.531876,111.165306 116.932037,110.329254 
z"/>
<path fill="#F8ECEE" opacity="1.000000" stroke="none" 
	d="
M64.934906,110.134933 
	C64.469070,109.376991 64.298325,108.596451 63.944794,107.458801 
	C64.827065,107.817520 65.892128,108.533356 66.978592,109.624596 
	C67.000000,110.000000 67.001266,109.998573 67.001266,109.998573 
	C66.410843,110.036499 65.820419,110.074425 64.934906,110.134933 
z"/>
<path fill="#F8ECEE" opacity="1.000000" stroke="none" 
	d="
M77.980644,111.840538 
	C77.994720,112.103470 78.002937,112.561378 77.957077,112.623505 
	C77.169495,112.942604 76.427773,113.199577 75.439835,112.947662 
	C75.448395,111.964729 75.703178,111.490685 75.957962,111.016640 
	C76.627502,111.203629 77.297035,111.390617 77.980644,111.840538 
z"/>
<path fill="#F8ECEE" opacity="1.000000" stroke="none" 
	d="
M128.249084,107.220917 
	C128.383698,107.927391 128.136597,108.607094 127.909119,109.656296 
	C127.499664,110.021103 127.070610,110.016411 126.320770,110.005859 
	C126.000000,110.000000 126.002136,110.002136 126.002136,110.002136 
	C126.623886,109.066139 127.245636,108.130135 128.249084,107.220917 
z"/>
<path fill="#F8ECEE" opacity="1.000000" stroke="none" 
	d="
M125.999001,109.998932 
	C125.015968,110.241707 124.033943,110.485558 123.021393,110.359985 
	C122.990875,109.990578 123.097015,109.878593 123.097015,109.878601 
	C123.823227,109.910469 124.549431,109.942337 125.638885,109.988174 
	C126.002136,110.002136 126.000000,110.000000 125.999001,109.998932 
z"/>
<path fill="#F9EFF0" opacity="1.000000" stroke="none" 
	d="
M122.934784,110.043541 
	C122.450432,109.698357 122.022163,109.300201 121.593903,108.902054 
	C122.047241,109.065636 122.500587,109.229218 123.025467,109.635696 
	C123.097015,109.878593 122.990875,109.990578 122.934784,110.043541 
z"/>
<path fill="#F8ECEE" opacity="1.000000" stroke="none" 
	d="
M66.999283,110.000641 
	C67.489571,110.282417 67.980583,110.563553 68.471603,110.844688 
	C68.309753,111.042458 68.147903,111.240227 67.986046,111.437996 
	C67.689705,111.134552 67.393364,110.831100 67.049149,110.263115 
	C67.001266,109.998573 67.000000,110.000000 66.999283,110.000641 
z"/>
<path fill="#F9EFF0" opacity="1.000000" stroke="none" 
	d="
M71.010559,108.503906 
	C71.139221,108.830544 71.064735,109.152657 70.990250,109.474762 
	C70.929306,109.149635 70.868355,108.824509 71.010559,108.503906 
z"/>
<path fill="#B22C3C" opacity="1.000000" stroke="none" 
	d="
M75.554230,110.987442 
	C75.703178,111.490685 75.448395,111.964729 75.095169,112.711761 
	C74.520813,112.738213 74.044899,112.491669 73.568993,112.245117 
	C74.096153,111.816162 74.623322,111.387199 75.554230,110.987442 
z"/>
<path fill="#AB1E2A" opacity="1.000000" stroke="none" 
	d="
M85.129875,110.263611 
	C85.505981,110.209175 86.062263,110.399292 86.814148,110.815247 
	C86.443184,110.863449 85.876617,110.685806 85.129875,110.263611 
z"/>
</svg>